<svg width="24" height="24" viewBox="0 0 24 24" fill="none" xmlns="http://www.w3.org/2000/svg">
    <path d="M17.75 14c1.209 0 2.194.953 2.247 2.148v.102h-8l-.001-.751H6.249a.749.749 0 0 0-.749.75v.578c0 .535.191 1.053.539 1.46 1.253 1.468 3.22 2.214 5.957 2.214v-.751l6.643.001c-1.561 1.506-3.79 2.25-6.643 2.25-3.145 0-5.531-.905-7.098-2.74A3.75 3.75 0 0 1 4 16.828v-.578a2.249 2.249 0 0 1 2.249-2.25H17.75zm1.716 4.751-7.47-.001v-1.5h7.98a3.751 3.751 0 0 1-.51 1.501zM11.997 2c1.636 0 3.088.785 4 2h-4v-.5a3.5 3.5 0 0 0 0 7V10l4 .001a5 5 0 1 1-4-8.001zm4.976 5.5A4.968 4.968 0 0 1 16.58 9h-4.584V7.5h4.976zM16.58 5c.204.468.338.972.39 1.5h-4.975V5h4.585z" fill="#CCC"/>
</svg>
