<svg width="96" height="75" viewBox="0 0 96 75" fill="none" xmlns="http://www.w3.org/2000/svg">
    <g filter="url(#k6cnvk164b)" fill="#fff" opacity=".5" clip-path="url(#ctjon1axaa)">
        <path d="M59.275 10.992h-.771v25.8h.771v-25.8zM37.49 10.992h-.771v25.8h.771v-25.8zM58.045 10.992h-.772v25.8h.772v-25.8zM38.783 10.992h-.771v25.8h.771v-25.8zM39.305 36.727l6.727-2.795V14.01l-6.727-2.795v25.512zm5.202-22.887 1.144.477v4.575l-1.144-.144V13.84zm0 5.078 1.144.144v4.305l-1.144.19v-4.64zm0 4.807 1.144-.19v4.804l-1.144.38v-4.994zm0 5.173 1.144-.382v5.109l-1.144.477v-5.204zm-2.088-15.926 1.944.809v4.949l-1.944-.245v-5.513zm0 5.683 1.944.245v4.683l-1.944.322v-5.25zm0 5.418 1.944-.323v5.021l-1.944.647v-5.345zm0 5.518 1.944-.647v5.217l-1.944.809v-5.38zm-2.734-17.753 2.587 1.075v5.556l-2.587-.324v-6.307zm0 6.474 2.587.325v5.291l-2.587.43v-6.046zm0 6.214 2.587-.43v5.368l-2.587.86v-5.798zm0 5.974 2.587-.86v5.389l-2.587 1.074V30.5zM50.09 33.931l6.727 2.796V11.215L50.09 14.01v19.922zm3.76-21.018 2.586-1.075v6.307l-2.587.324v-5.557zm0 5.724 2.586-.325v6.044l-2.587-.43v-5.29zm0 5.461 2.586.43v5.8l-2.587-.861v-5.369zm0 5.542 2.586.86v5.606L53.85 35.03V29.64zM51.76 13.78l1.944-.808v5.513l-1.944.245v-4.95zm0 5.117 1.944-.242v5.247l-1.944-.322v-4.683zm0 4.854 1.944.322v5.343l-1.944-.647V23.75zm0 5.193 1.944.647v5.379l-1.944-.81v-5.216zm-1.29-14.627 1.144-.477v4.908l-1.145.144v-4.575zm0 4.742 1.144-.144v4.64l-1.145-.19v-4.306zm0 4.478 1.144.19v4.995l-1.145-.38v-4.805zm0 4.98 1.144.38v5.205l-1.145-.477v-5.109zM37.557 9.805c.234-2.3 1.288-4.441 3.026-6.108a10.546 10.546 0 0 1 4.276-2.494v.523a10.046 10.046 0 0 0-3.944 2.34c-1.636 1.568-2.633 3.575-2.88 5.739H57.936c-.248-2.164-1.245-4.17-2.88-5.74a10.096 10.096 0 0 0-4.161-2.406v-.518a10.557 10.557 0 0 1 4.49 2.556c1.735 1.667 2.79 3.805 3.026 6.108h.769c-.237-2.502-1.37-4.83-3.255-6.636C53.793 1.126 50.974 0 47.98 0c-2.99 0-5.811 1.126-7.94 3.169-1.885 1.808-3.017 4.134-3.256 6.636h.772zm7.3-.147h-2.471a5.632 5.632 0 0 1 1.589-3.117c.273-.273.568-.515.88-.724v3.841h.002zm0-4.439a6.157 6.157 0 0 0-2.985 4.439h-3.11c.27-1.922 1.186-3.704 2.647-5.106a9.389 9.389 0 0 1 3.448-2.105V5.22zm6.038-2.839a9.373 9.373 0 0 1 3.664 2.175c1.463 1.401 2.376 3.184 2.646 5.106h-3.109a6.156 6.156 0 0 0-1.743-3.48 6.183 6.183 0 0 0-1.458-1.088V2.38zm0 3.308a5.64 5.64 0 0 1 2.685 3.97h-2.685v-3.97zM45.003 1.16a10.843 10.843 0 0 1 2.98-.414c.947 0 1.875.123 2.765.358v.515a10.375 10.375 0 0 0-5.745.06v-.519zm0 1.242a9.609 9.609 0 0 1 2.98-.471c.952 0 1.88.139 2.765.404v2.687a6.125 6.125 0 0 0-5.745.11v-2.73zm0 3.328a5.617 5.617 0 0 1 2.98-.857c.983 0 1.93.255 2.765.729v4.057h-5.744V5.73zM59.276 10.117H36.719v.567h22.556v-.567z"/>
        <path d="M45.208 27.057h-.164a.052.052 0 0 1-.052-.051v-6.142c0-.028.023-.052.052-.052h.164c.029 0 .052.024.052.052v6.144c-.003.026-.023.05-.052.05zM51.064 27.057h-.165a.052.052 0 0 1-.051-.051v-6.142c0-.028.023-.052.051-.052h.165c.028 0 .051.024.051.052v6.144c-.003.026-.023.05-.051.05zM25.65 73.484c0 .793-.65 1.422-1.432 1.422a1.428 1.428 0 0 1-1.433-1.422c0-.788.65-1.427 1.433-1.427.781 0 1.432.638 1.432 1.427zm-2.559-.003c0 .621.504 1.142 1.127 1.142.624 0 1.126-.52 1.126-1.142a1.126 1.126 0 1 0-2.253 0zM26.81 74.86h-.306v-2.757h.452c.237 0 .481.008.682.147a.762.762 0 0 1 .311.629.782.782 0 0 1-.262.593c-.185.154-.422.182-.653.182h-.224v1.206zm0-1.492h.206c.34 0 .627-.103.627-.497 0-.448-.363-.481-.72-.481h-.113v.978zM28.773 72.103h1.425v.287h-1.119v.816h1.088v.286H29.08v1.082h1.119v.286h-1.425v-2.757zM31.176 71.986l2.144 2.25v-2.134h.306v2.88l-2.144-2.249v2.126h-.306v-2.873zM35.95 72.103h.351l.703 1.23.699-1.23h.355l-.903 1.572v1.185h-.306v-1.185l-.9-1.572zM41.525 73.484c0 .793-.65 1.422-1.432 1.422a1.426 1.426 0 0 1-1.433-1.422c0-.788.65-1.427 1.433-1.427.784 0 1.432.638 1.432 1.427zm-2.559-.003c0 .621.504 1.142 1.127 1.142a1.14 1.14 0 0 0 1.126-1.142 1.126 1.126 0 1 0-2.252 0zM42.677 73.745c0 .203-.008.438.121.613.12.167.355.262.555.262.198 0 .412-.09.54-.244.147-.175.137-.418.137-.632v-1.64h.306v1.725c0 .3-.023.539-.242.763-.19.204-.463.314-.74.314-.26 0-.525-.098-.713-.28-.242-.23-.27-.482-.27-.797v-1.725h.306v1.64zM45.618 74.86h-.306v-2.757h.397c.521 0 1.008.14 1.008.76 0 .425-.265.724-.69.76l.875 1.234h-.376l-.83-1.208h-.078v1.211zm0-1.481h.096c.344 0 .697-.065.697-.492 0-.454-.332-.498-.7-.498h-.09v.99h-.003zM52.013 73.484c0 .793-.65 1.422-1.432 1.422a1.426 1.426 0 0 1-1.433-1.422c0-.788.651-1.427 1.433-1.427.781 0 1.432.638 1.432 1.427zm-2.561-.003c0 .621.504 1.142 1.126 1.142a1.14 1.14 0 0 0 1.127-1.142 1.13 1.13 0 0 0-1.127-1.138 1.128 1.128 0 0 0-1.126 1.138zM53.687 74.166l.89-2.205.89 2.205.722-2.063h.332L55.467 75l-.89-2.218-.89 2.218-1.054-2.898h.331l.723 2.063zM57.297 71.986l2.145 2.25v-2.134h.306v2.88l-2.145-2.249v2.126h-.306v-2.873zM63.048 74.86h-.306v-2.47h-.664v-.287h1.64v.287h-.67v2.47zM64.705 74.075l-.332.784h-.334l1.27-2.888 1.237 2.888h-.34l-.323-.784h-1.178zm.594-1.388-.47 1.105h.93l-.46-1.105zM68.41 72.64c-.107-.19-.24-.298-.472-.298-.245 0-.455.175-.455.428 0 .237.244.347.429.432l.183.08c.357.157.66.338.66.776a.85.85 0 0 1-.864.852c-.442 0-.768-.285-.856-.713l.298-.085c.042.28.255.513.55.513.296 0 .566-.227.566-.539 0-.322-.252-.43-.506-.549l-.167-.072c-.322-.147-.597-.312-.597-.706 0-.427.36-.7.769-.7.306 0 .566.157.71.427l-.247.155zM70.368 74.86h-.306v-2.47h-.664v-.287h1.641v.287h-.671v2.47zM71.79 72.103h1.424v.287h-1.119v.816h1.088v.286h-1.088v1.082h1.119v.286h-1.425v-2.757zM17.087 51.085a7.933 7.933 0 0 0-3.145-3.197l-.02-.01c-.064-.038-.126-.082-.193-.121-1.33-.768-2.867-1.151-4.608-1.151-1.2 0-2.327.231-3.382.695a8.249 8.249 0 0 0-1.321.647c-1.363.822-2.45 1.968-3.238 3.408C.4 52.796 0 54.41 0 56.156c0 1.761.37 3.34 1.098 4.696a7.833 7.833 0 0 0 3.096 3.171c.219.124.442.234.669.337 1.206.611 2.56.92 4.068.92 1.494 0 2.864-.33 4.114-.984a6.08 6.08 0 0 0 .674-.33 8.832 8.832 0 0 0 3.283-3.372c.795-1.425 1.196-3.03 1.196-4.774.003-1.777-.373-3.37-1.11-4.735zM5.927 63.64c-1.02-.87-1.813-2.03-2.376-3.48-.563-1.448-.851-3.002-.866-4.655-.031-1.827.228-3.386.784-4.668.555-1.283 1.298-2.255 2.232-2.909a5.263 5.263 0 0 1 3.088-.984c1.314 0 2.487.448 3.515 1.345.851.742 1.543 1.684 2.08 2.828.127.3.25.606.376.923.06.149.113.304.167.456.42 1.303.633 2.694.633 4.173 0 1.646-.252 3.058-.736 4.253-.018.041-.03.085-.048.127-.129.278-.263.558-.402.834-.511.917-1.147 1.63-1.902 2.133a5.464 5.464 0 0 1-3.089.933c-1.283-.003-2.435-.438-3.456-1.309zM56.055 46.957c-.12 0-.244 0-.368.002l-5.51-.005-.443-.002c-.087 0-.128.046-.128.141 0 .093.041.142.128.142.366 0 .703.046 1.019.139.594.211 1.11.642 1.453 1.18.493.775.743 1.947.743 3.192v9.825L40.603 46.967a.114.114 0 0 0-.087-.041h-3.729c-.082 0-.12.041-.12.118 0 .08.04.119.12.119.062.002.121.002.183.002.694.021 1.198.111 1.494.276.288.157.727.526.848 1.09.126.595.142 1.798.142 3.176l-.054 9.331c0 1.08-.242 1.922-.694 2.612a2.477 2.477 0 0 1-1.605 1.062v-.003c-.175.031-.355.046-.545.046-.08 0-.118.04-.118.114 0 .075.038.113.118.113.193 0 .388-.002.586-.005l5.39.008h.036v-.003c.082-.008.126-.049.126-.129 0-.087-.049-.131-.15-.131h-.028v-.005c-.048 0-.095-.003-.144-.008v-.002l-.01.002c-.843-.064-1.659-.567-2.114-1.278-.493-.773-.555-1.623-.555-2.87l.082-10.855 13.017 15.147c.056.09.144.134.24.116.105-.018.169-.098.169-.208V50.903c0-1.079.229-1.975.681-2.666.45-.685 1.23-1.028 2.052-1.028h.118c.111 0 .168-.041.168-.129.005-.082-.052-.123-.165-.123zM77.04 46.957c-.121 0-.245 0-.368.002l-5.51-.005-.443-.002c-.088 0-.129.046-.129.141 0 .093.041.142.129.142.365 0 .702.046 1.018.139.594.211 1.111.642 1.453 1.18.494.775.743 1.947.743 3.192v9.825L61.588 46.967a.113.113 0 0 0-.088-.041H57.772c-.083 0-.121.041-.121.118 0 .08.04.119.12.119.062.002.121.002.183.002.694.021 1.199.111 1.494.276.288.157.728.526.849 1.09.126.595.141 1.798.141 3.176l-.054 9.331c0 1.08-.242 1.922-.694 2.612a2.477 2.477 0 0 1-1.605 1.062v-.003c-.175.031-.355.046-.545.046-.08 0-.118.04-.118.114 0 .075.038.113.118.113.193 0 .389-.002.587-.005l5.39.008h.035v-.003c.083-.008.126-.049.126-.129 0-.087-.049-.131-.149-.131h-.028v-.005a1.36 1.36 0 0 1-.144-.008v-.002l-.01.002c-.844-.064-1.66-.567-2.114-1.278-.494-.773-.556-1.623-.556-2.87l.083-10.855 13.016 15.147c.057.09.144.134.24.116.105-.018.17-.098.17-.208V50.903c0-1.079.228-1.975.68-2.666.45-.685 1.23-1.028 2.053-1.028h.118c.11 0 .167-.041.167-.129.005-.082-.051-.123-.164-.123zM34.616 49.47c-.61-.794-1.491-1.404-2.648-1.837-1.158-.43-2.533-.647-4.133-.647h-2.571v-.002c-1.602-.018-3.721-.036-4.629-.044l-.316-.002h-.108c-.08 0-.118.03-.118.09 0 .062.038.09.118.09.278.008.522.026.735.054.435.093.839.23 1.019.317.272.134.465.446.578.927.119.51.18 1.355.18 2.517v9.939c0 1.162-.059 2.11-.18 2.617-.11.48-.306.86-.578.995-.291.144-1.258.23-1.944.245-.016 0-.031 0-.044.002-.093.008-.144.052-.136.129.005.072.054.085.115.098a.483.483 0 0 0 .078.005c.725.003 6.16.003 7.817.003h.473c.123 0 .185-.04.185-.116 0-.067-.049-.106-.142-.114a.382.382 0 0 1-.05-.005h-.003c-.998 0-1.662-.087-2.096-.257-.422-.165-.707-.593-.875-1.124-.172-.546-.275-1.587-.275-2.862v-2.952h3.153c2.296 0 4.089-.466 5.38-1.396 1.29-.93 1.936-2.216 1.936-3.854-.005-1.082-.311-2.023-.92-2.816zm-2.98 6.44c-1.013.897-2.43 1.345-4.25 1.345h-2.323V50.31c0-.915.02-1.564.06-1.927.033-.317.08-.822.13-1.067l-.007-.013h.01v-.002h.008v-.031h2.168c1.188 0 2.211.211 3.075.634.864.422 1.52 1.01 1.972 1.76.453.749.677 1.617.677 2.598 0 1.536-.507 2.752-1.52 3.648zM95.998 57.01c-.008-.072-.055-.108-.137-.108l-6.439-.005c-.1 0-.146.036-.136.108.008.06.039.095.095.106 0 0 .049.01.098.01h.233c.57.003 1.2.057 1.523.165a.165.165 0 0 1 .026.01l.033.013c.11.054.211.214.263.317a2.167 2.167 0 0 1 .175.49c.126.535.19 1.535.19 2.743v3.262a.072.072 0 0 1-.046.067c-.605.25-1.263.445-1.975.59-.728.146-1.417.218-2.068.218-1.6 0-2.947-.456-4.037-1.37-1.093-.915-1.906-2.079-2.435-3.49a12.362 12.362 0 0 1-.797-4.373c0-1.656.236-3.13.712-4.423.476-1.293 1.154-2.298 2.042-3.014.887-.716 1.93-1.074 3.134-1.074 1.33 0 2.453.37 3.371 1.11.003 0 .003.003.006.003.678.615 1.62 1.942 1.993 2.656.277.53.565 1.141.856 1.81.115.263.229.534.344.817h-.002c.026.065.056.132.085.201.002.008.007.018.01.026v.003c.026.059.049.118.072.175.041.088.072.116.152.11.082-.007.128-.069.128-.17l-.01-.05-.105-.428-.204-.822-.876-3.594-.155-.603a.215.215 0 0 0-.103-.137s-.002-.002-.005-.002c-.442-.234-2.188-.85-2.188-.848a13.135 13.135 0 0 0-1.862-.458 12.185 12.185 0 0 0-1.484-.114c-.599 0-1.172.057-1.722.17a7.016 7.016 0 0 0-2.97 1.162c-1.204.83-2.148 1.974-2.803 3.4-.654 1.423-.988 3.02-.988 4.751 0 1.788.394 3.396 1.173 4.78.779 1.383 1.83 2.465 3.132 3.217a8.319 8.319 0 0 0 3.032 1.046v.002s.72.119 1.738.121h.056c.15 0 .301-.002.46-.01a9.373 9.373 0 0 0 1.77-.209 19.57 19.57 0 0 0 1.995-.582c.56-.203.952-.306 1.178-.309.008 0 .013 0 .02.003.145.038.283.141.425.314.195.242.326.482.401.732l.062.216c.008.03.038.052.07.052h.313a.052.052 0 0 0 .051-.052V65.7l.006-.22.002-.012.003-.114c0-.005 0-.01-.003-.017V63.27h-.005v-2.419c0-1.205.049-2.207.141-2.743 0 0 .044-.227.129-.433.036-.077.075-.15.11-.209.006-.005.008-.013.01-.018a.56.56 0 0 1 .124-.15c.14-.097.435-.156.751-.18.034 0 .285-.007.334-.007h.383c.109.008.155-.028.145-.1z"/>
    </g>
    <defs>
        <clipPath id="ctjon1axaa">
            <path fill="#fff" d="M0 0h96v75H0z"/>
        </clipPath>
        <filter id="k6cnvk164b" x="-20" y="-16" width="136" height="115" filterUnits="userSpaceOnUse" color-interpolation-filters="sRGB">
            <feFlood flood-opacity="0" result="BackgroundImageFix"/>
            <feColorMatrix in="SourceAlpha" values="0 0 0 0 0 0 0 0 0 0 0 0 0 0 0 0 0 0 127 0" result="hardAlpha"/>
            <feOffset dy="4"/>
            <feGaussianBlur stdDeviation="10"/>
            <feColorMatrix values="0 0 0 0 0 0 0 0 0 0 0 0 0 0 0 0 0 0 0.8 0"/>
            <feBlend in2="BackgroundImageFix" result="effect1_dropShadow_4272_5126"/>
            <feBlend in="SourceGraphic" in2="effect1_dropShadow_4272_5126" result="shape"/>
        </filter>
    </defs>
</svg>
