<svg xmlns="http://www.w3.org/2000/svg" width="135" height="31" fill="none" viewBox="0 0 135 31">
    <path fill="#666" d="M24.496 8.18c-1.015-1.885-2.47-3.37-4.323-4.413l-.027-.013c-.088-.055-.174-.113-.266-.167C18.05 2.53 15.94 2 13.543 2c-1.653 0-3.2.32-4.649.959-.625.243-1.234.538-1.819.892-1.873 1.134-3.37 2.717-4.45 4.704C1.548 10.54 1 12.77 1 15.175c0 2.43.509 4.611 1.511 6.482 1.005 1.873 2.437 3.346 4.257 4.377.3.168.608.323.922.464 1.658.843 3.521 1.267 5.592 1.267 2.054 0 3.939-.454 5.656-1.359.33-.14.648-.29.927-.454 1.905-1.123 3.424-2.688 4.516-4.652 1.091-1.964 1.644-4.181 1.644-6.587 0-2.451-.514-4.649-1.529-6.534zM9.15 25.5c-1.404-1.2-2.493-2.802-3.266-4.8-.774-1.998-1.17-4.14-1.192-6.423-.044-2.522.316-4.669 1.078-6.442.762-1.771 1.784-3.11 3.07-4.014 1.284-.905 2.698-1.357 4.245-1.357 1.807 0 3.419.62 4.833 1.857 1.169 1.022 2.121 2.326 2.86 3.9.174.413.345.838.515 1.272.082.209.158.42.231.63.578 1.798.87 3.716.87 5.76 0 2.272-.349 4.22-1.014 5.867-.024.055-.04.12-.066.173-.177.382-.36.77-.55 1.151-.706 1.265-1.575 2.249-2.618 2.944-1.285.857-2.7 1.284-4.246 1.284-1.76 0-3.345-.601-4.75-1.802zM78.078 2.483l-.504.001-7.577-.008c-.203-.002-.404-.003-.607-.003-.12 0-.178.065-.178.194s.058.194.178.194c.5 0 .966.065 1.4.193.817.29 1.526.883 1.999 1.627.679 1.069 1.023 2.686 1.023 4.403v13.564L56.836 2.498c-.03-.036-.075-.058-.121-.058h-4.946c-.006 0-.011 0-.017.002l-.163-.002c-.113 0-.168.056-.168.166 0 .11.056.166.168.166l.25.004c.953.027 1.644.154 2.054.378.398.218 1 .724 1.167 1.504.174.82.195 2.48.195 4.382l-.073 12.875c0 1.488-.334 2.65-.955 3.602-.503.769-1.313 1.294-2.206 1.464v-.001c-.24.04-.489.062-.75.062-.11 0-.163.052-.163.156 0 .104.055.157.164.157.266 0 .535-.003.804-.007l7.411.012H59.538c.114-.01.172-.07.172-.178 0-.119-.07-.18-.206-.18h-.038l-.002-.005-.198-.009v-.004l-.013.004c-1.16-.09-2.282-.78-2.907-1.764-.68-1.067-.764-2.24-.764-3.96l.114-14.978 17.899 20.898c.077.123.197.184.328.16.144-.026.234-.136.234-.288V7.934c0-1.488.315-2.725.938-3.678.618-.945 1.69-1.42 2.821-1.42H78.077c.154 0 .231-.059.231-.178 0-.116-.078-.175-.23-.175zM106.933 2.483l-.504.001-7.577-.008c-.203-.002-.404-.003-.607-.003-.12 0-.178.065-.178.194s.058.194.178.194c.5 0 .966.065 1.4.193.817.29 1.526.883 1.999 1.627.679 1.069 1.023 2.686 1.023 4.403v13.564L85.692 2.498c-.03-.036-.074-.058-.12-.058h-4.947c-.005 0-.01 0-.016.002l-.164-.002c-.112 0-.167.056-.167.166 0 .11.056.166.167.166l.25.004c.953.027 1.645.154 2.055.378.397.218 1 .724 1.166 1.504.175.82.196 2.48.196 4.382l-.073 12.875c0 1.488-.334 2.65-.955 3.602-.503.769-1.313 1.294-2.206 1.464v-.001c-.24.04-.49.062-.75.062-.11 0-.163.052-.163.156 0 .104.055.157.163.157.266 0 .535-.003.805-.007l7.41.012H88.395c.114-.01.172-.07.172-.178 0-.119-.069-.18-.206-.18h-.038l-.001-.005-.199-.009v-.004l-.012.004c-1.16-.09-2.282-.78-2.908-1.764-.679-1.067-.763-2.24-.763-3.96l.114-14.978 17.898 20.898c.078.123.197.184.328.16.144-.026.234-.136.234-.288V7.934c0-1.488.316-2.725.938-3.678.619-.945 1.691-1.42 2.822-1.42H106.933c.154 0 .231-.059.231-.178 0-.116-.077-.175-.231-.175zM48.6 5.952c-.839-1.095-2.053-1.939-3.642-2.533-1.59-.595-3.485-.892-5.684-.892h-3.537v-.005c-2.203-.024-5.116-.05-6.363-.06-.142-.002-.288-.003-.436-.003h-.15c-.11 0-.163.042-.163.124 0 .084.055.125.163.125.38.01.717.034 1.012.074.598.126 1.153.315 1.4.437.375.186.64.615.794 1.277.164.703.247 1.87.247 3.472V21.68c0 1.602-.083 2.91-.247 3.611-.153.663-.42 1.188-.794 1.374-.4.198-1.728.316-2.675.338-.023 0-.04.002-.06.004-.125.012-.196.071-.188.177.008.101.072.12.16.136.022.005.057.007.106.007.998.006 8.472.006 10.747.003.213.002.428.002.65.002.17 0 .254-.054.254-.159 0-.092-.066-.144-.196-.156l-.069-.005h-.002c-1.374 0-2.282-.12-2.884-.354-.579-.227-.973-.817-1.203-1.55-.238-.754-.379-2.189-.379-3.949v-4.072h4.336c3.157 0 5.622-.643 7.397-1.927 1.775-1.285 2.662-3.057 2.662-5.317.002-1.498-.418-2.795-1.256-3.89zm-4.098 8.887c-1.395 1.237-3.343 1.855-5.846 1.855h-3.192V7.112c0-1.262.027-2.157.082-2.658.048-.438.108-1.133.18-1.471l-.013-.017h.016l.001-.005h.01V2.92h2.982c1.633 0 3.043.292 4.229.874 1.186.583 2.09 1.392 2.71 2.427.621 1.035.931 2.23.931 3.586 0 2.119-.697 3.795-2.09 5.033zM132.999 16.357c-.011-.1-.073-.15-.187-.15l-8.852-.009c-.137 0-.2.05-.188.15.009.082.052.13.133.145 0 0 .066.012.135.012h.324c.782.003 1.648.08 2.092.228.01.005.022.009.036.013.016.006.031.011.047.019.152.073.289.296.362.436.015.03.032.062.046.095h.002c.077.17.143.363.196.582.173.737.26 2.12.26 3.785v4.5c0 .04-.024.077-.062.093-.832.344-1.737.616-2.714.813-1.002.202-1.948.303-2.842.303-2.2 0-4.049-.63-5.552-1.89-1.503-1.262-2.619-2.868-3.349-4.818-.729-1.95-1.094-3.96-1.094-6.03 0-2.284.326-4.318.98-6.102.654-1.784 1.589-3.17 2.809-4.157 1.218-.987 2.657-1.482 4.31-1.482 1.829 0 3.373.512 4.635 1.533l.005.004c.933.848 2.226 2.679 2.74 3.664.382.731.776 1.574 1.178 2.5.158.362.315.736.475 1.125-.002 0-.002 0-.003.002l.115.276.016.037.001.004.102.242c.055.122.097.162.208.153.113-.008.176-.098.176-.232l-.014-.071-.144-.59h-.001l-.28-1.133-1.206-4.958-.21-.832c-.02-.082-.07-.15-.142-.19l-.006-.003c-.607-.323-3.007-1.174-3.01-1.17-.731-.243-1.581-.46-2.561-.632-.782-.101-1.469-.156-2.04-.156-.824 0-1.614.08-2.369.235-1.493.224-2.863.759-4.085 1.604-1.654 1.144-2.951 2.723-3.856 4.691-.9 1.96-1.356 4.166-1.356 6.554 0 2.466.542 4.685 1.611 6.592 1.069 1.908 2.518 3.402 4.307 4.438 1.303.758 2.7 1.238 4.168 1.443l-.002.004s.989.165 2.392.166l.038.001.037-.001c.203 0 .414-.006.632-.014.916-.031 1.73-.126 2.433-.289.871-.201 1.785-.469 2.743-.803.77-.28 1.31-.423 1.617-.427.01 0 .018 0 .027.002.197.054.388.194.581.435.268.334.448.666.551 1.01l.086.298c.013.043.052.073.096.073h.431c.038 0 .07-.032.07-.07l.002-.001v-.058l.005-.302c.002-.006.003-.011.003-.017l.002-.157c0-.007 0-.016-.002-.023V25l-.008.001v-3.337c0-1.665.066-3.047.196-3.785 0 0 .062-.313.176-.596.05-.108.101-.206.15-.288l.016-.025c.06-.098.12-.17.17-.205.192-.136.599-.218 1.034-.248.047-.002.393-.01.459-.01l.527.001c.141-.001.205-.05.192-.151z"/>
</svg>
