<?xml version="1.0" encoding="utf-8"?>
<!-- Generator: Adobe Illustrator 27.4.0, SVG Export Plug-In . SVG Version: 6.00 Build 0)  -->
<svg version="1.1" id="레이어_1" xmlns="http://www.w3.org/2000/svg" xmlns:xlink="http://www.w3.org/1999/xlink" x="0px"
	 y="0px" viewBox="0 0 181 86.4" style="enable-background:new 0 0 181 86.4;" xml:space="preserve">
<style type="text/css">
	.st0{fill:#E9D887;}
</style>
<g>
	<path class="st0" d="M43.2,13.2c0,0,3.9-17.7-6.7-12.1C31,4,27.9,7.7,26.3,10.6c-0.5,0.9,0.7,1.8,1.4,1C36.8,2.2,38,6.8,38,6.8
		s2.6,8.7-9.2,29.1c-11.4,19.8-20,16-20,16c0,0,0,0,0,0c-4.1-2-2.4-9.9-2.4-9.9c2.7-15.2,10.3-26.4,14.8-32c0.6-0.7-0.3-1.7-1.1-1.2
		c-10.8,7.8-16,20.3-16,20.3s-13.7,33.9,8.8,24.1C35.3,43.5,43.2,13.2,43.2,13.2z"/>
	<path class="st0" d="M69.9,49.6c-5.2,2.1-5.2-1.4-5.2-1.4s-0.3-3.2,1.7-7.4c0,0,0,0,0,0c0,0,3.8,1,13.8-8.5c0,0,6.7-6.4,4.5-9.7
		c0,0,0,0,0,0c0,0-2.9-3.5-12.4,3.7c0,0-12.5,9.3-13,22.6c-0.4,11.9,14-0.6,14-0.6s4.7-4.2,7.9-8.4C81.3,39.9,75.1,47.6,69.9,49.6z
		 M67.6,36.7c1-2.1,2.4-4,3.8-5.9c0.4-0.6,0.9-1.2,1.3-1.8c1.2-1.6,2.6-3,4.2-4.2c1-0.7,2.7-1.3,3.1,0.4c0.2,0.8-0.1,1.7-0.4,2.5
		c-0.4,1.1-0.9,2.1-1.5,3c-1.9,2.7-4.5,5.2-7,7.3c-0.7,0.6-1.4,1.1-2.2,1.5c-0.3,0.2-0.7,0.4-1.1,0.4C66.1,40,67.3,37.5,67.6,36.7z"
		/>
	<path class="st0" d="M122.9,38.9c-4.2,4.5-7.3,6.7-7.3,6.7c-3,2.2-2.7-0.3-2.7-0.3c-0.1-2.5,7-14.2,7-14.2s4.4-7.6,4.6-8.3
		c0,0,0.3-1.1-1.1-0.4c0,0-3.2,1-5.2,4.2c0,0-9.6,14.2-13,23.8c0,0-1.7,5.1,1.8,2.8C107.2,53.1,113.4,49.1,122.9,38.9z"/>
	<path class="st0" d="M108.2,40.8c-1.1,1-2.2,2-3.4,3c-0.6,0.5-1.4,1.1-2,1.6c-0.7,0.5-1.7,1.4-2.6,0.8c0,0-1-0.5,0.2-3.1
		c0,0,2.3-4.9,4-7.7c0,0,5.5-8.8,6.1-11.9c0.5-3.1-5,1.3-5,1.3s-4.1,2.7-10.7,9.4c0,0-3.5,3.5-5.4,5.7c0,0-0.9,0.9-1.6,0.5
		c0,0-1-0.4,1.4-4.3l3.3-5.4c0,0,0,0,0,0l1.6-2.6c0,0,0,0,0,0c1.6-2.5,3.5-5.3,3.6-5.6c0,0,0.3-1.1-1.1-0.4c0,0-3.2,1-5.2,4.2
		c0,0-0.4,0.5-1.1,1.6c-2.2,3.3-6.5,10-11.3,19.4l-2.4,4.8c0,0-0.6,1.2,0,1.4c0,0,1.3,0.4,4-2.4c0,0,0,0,0,0c0,0,6.9-7.9,8.4-9.9
		c0,0,0,0,0,0c0,0,10.4-12.2,13.7-12.6c0,0,1-0.2,0.8,0.9c0,0,0,1.2-2.1,4.1c0,0-7.6,12-9.6,18.3c0,0-0.4,1.1,0.2,1.3
		c0,0,1.1,0.8,4.7-2.2c0,0,5.3-4.2,12.9-11.6C109.1,40,108.7,40.4,108.2,40.8z"/>
	<path class="st0" d="M148.7,40.9c-1.1,1-2.2,2-3.4,3c-0.6,0.5-1.3,1.1-2,1.6c-0.7,0.5-1.7,1.3-2.7,0.7c0,0-1-0.5,0.2-3.1
		c0,0,2.3-4.9,4-7.7c0,0,5.5-8.8,6.1-11.9c0.5-3.1-5,1.3-5,1.3s-4.3,2.7-10.9,9.5c0,0-3,3.1-5.2,5.1c0,0-1.2,1.3-1.6,1.1
		c0,0-1-0.4,1.4-4.3l3.3-5.4c0,0,0,0,0,0l1.6-2.6c0,0,0,0,0,0c1.6-2.5,3.5-5.3,3.6-5.6c0,0,0.3-1.1-1.1-0.4c0,0-3.2,1-5.2,4.2
		c0,0-0.4,0.5-1.1,1.6c-2.2,3.3-6.5,10-11.3,19.4l-2.4,4.8c0,0-0.6,1.2,0,1.4c0,0,1.3,0.4,4-2.4c0,0,0,0,0,0c0,0,6.9-7.9,8.4-9.9
		c0,0,0,0,0,0c0,0,10.4-12.2,13.7-12.6c0,0,1-0.2,0.8,0.9c0,0,0,1.2-2.1,4.1c0,0-7.6,12-9.6,18.3c0,0-0.4,1.1,0.2,1.3
		c0,0,1.1,0.8,4.7-2.2c0,0,5.3-4.2,12.9-11.6C149.6,40,149.1,40.5,148.7,40.9z"/>
	<path class="st0" d="M124.3,18.9c1.1,0.7,2.9-0.2,4.1-2c1.2-1.8,1.3-3.8,0.2-4.5c-1.1-0.7-2.9,0.2-4.1,2
		C123.4,16.2,123.3,18.2,124.3,18.9z"/>
	<path class="st0" d="M156.1,56.4c0.5-0.4,1.2-1,1.2-1C157.1,55.6,156.5,56.1,156.1,56.4z"/>
	<path class="st0" d="M155.9,56.6c0.1,0,0.1-0.1,0.2-0.2C156,56.4,155.9,56.5,155.9,56.6z"/>
	<path class="st0" d="M180.6,18.2c-2.8,0.5-5,4.5-5,4.5c-0.4,0.6-1.2,0.1-1.2,0.1c-3.6-2-8.5,0.7-8.5,0.7
		c-17.2,9.5-19.5,26.7-19.5,26.7c-0.8,4.2,2.6,2.7,2.6,2.7c1.1-0.5,2.6-1.4,3.6-2.1c2.1-1.5,4.4-3.1,6.3-4.9
		c1.6-1.6,2.9-2.7,4.4-4.6l0,0c0,0,1.2-1.5,1.5-1.3c0.4,0.4-0.6,2.5-0.6,2.5c-0.4,1.1-11,21-11,21s-6.7,10.6-10.2,15.5
		c-3.4,4.9-3.6,2.3-3.6,2.3c1.3-9.9,12.9-21.6,16.7-24.7C132.8,75.3,137.7,84,137.7,84c1.5,4.4,4.2,1.5,4.2,1.5
		c3.8-3.3,13.5-20.2,13.5-20.2c0.7-1.3,4.1-7.4,8.2-14.7c2-1.4,11.2-8.3,15.6-15.1c-0.6,0.9-5.4,7.8-15.2,14.4
		c7-12.6,15.8-28.1,15.8-28.1C182,17.7,180.6,18.2,180.6,18.2z M172.2,27.9c-3.5,6-7.8,11.2-10.4,14l-0.7,0.8
		c-1.1,1.2-2.3,2.4-3.7,3.4c-0.7,0.5-1.6,1-2.6,1c-0.5,0-1-0.2-1.3-0.6c-2-3,6.4-13.8,6.4-13.8c3-3.7,6.8-8.3,11.6-9.4
		C175.3,22.4,173.2,26.2,172.2,27.9z"/>
	<path class="st0" d="M179.2,35.5c0-0.1,0.1-0.1,0.1-0.1C179.2,35.4,179.2,35.4,179.2,35.5z"/>
	<path class="st0" d="M55.3,23c-1.4,0.8-2.9,1.8-4.3,3.1c-0.8,0.8-1.4,1.4-1.4,1.4s0,0,0,0c-0.9,0.9-1.7,2-1.7,2
		c-0.4,0.4-0.8,0.8-1,0.8c0,0-0.6,0.2,1-2.8c0,0,0.8-1.2,1.6-3c0.5-1.2-1.1-2.1-1.9-1.1c-2.1,3-5.3,8.2-11,18.4
		c0,0-13.3,24-16.4,28.8c0,0-1.7,2.5-3.3,6.4c-0.6,1.4,1.3,2.6,2.3,1.4c4.9-5.4,4.5-6.2,9.4-15.4c1.7-3.1,3.3-6.3,5.2-9.3
		c0,0,0.5-0.9,1.4-0.3c0,0,4.1,2.4,9.4-0.7c0,0,13.1-8.1,15.7-23.6C61.7,21,58.5,21.1,55.3,23z M46.8,46.9c-4.6,6.4-8.8,5.3-8.8,5.3
		c-2.6-0.6-0.8-3.7-0.8-3.7c0.2-0.3,0.3-0.6,0.5-0.9c1.8-3,3.8-5.8,5.6-8.7c0.5-0.8,1.1-1.6,1.6-2.4c1.1-1.6,2.2-3.3,3.3-4.9
		c1.2-1.6,2.4-3.2,4.2-4.4c0.5-0.3,1.1-0.5,1.6-0.3c1.7,0.5,1.4,3,1,4.6c-0.2,0.7-0.5,1.5-0.9,2.3v0C53.1,36.1,50.3,41.9,46.8,46.9z
		"/>
</g>
</svg>
