<svg width="78" height="60" viewBox="0 0 78 60" fill="none" xmlns="http://www.w3.org/2000/svg">
<g clip-path="url(#clip0_4483_7941)">
<path d="M48.1659 8.79492H47.5391V29.4352H48.1659V8.79492Z" fill="currentColor"/>
<path d="M30.4627 8.79492H29.8359V29.4352H30.4627V8.79492Z" fill="currentColor"/>
<path d="M47.1658 8.79492H46.5391V29.4352H47.1658V8.79492Z" fill="currentColor"/>
<path d="M31.5174 8.79492H30.8906V29.4352H31.5174V8.79492Z" fill="currentColor"/>
<path d="M31.9375 29.3821L37.4031 27.146V11.2088L31.9375 8.97266V29.3821ZM36.1642 11.0727L37.0939 11.454V15.1142L36.1642 14.9988V11.0727ZM36.1642 15.1349L37.0939 15.2503V18.6941L36.1642 18.8466V15.1349ZM36.1642 18.9806L37.0939 18.828V22.6717L36.1642 22.9767V18.9806ZM36.1642 23.1189L37.0939 22.8139V26.9007L36.1642 27.282V23.1189ZM34.4677 10.3782L36.0472 11.0253V14.9844L34.4677 14.7886V10.3782ZM34.4677 14.9246L36.0472 15.1204V18.8672L34.4677 19.1248V14.9246ZM34.4677 19.2588L36.0472 19.0012V23.0179L34.4677 23.5352V19.2588ZM34.4677 23.6733L36.0472 23.156V27.3294L34.4677 27.9765V23.6733ZM32.2467 9.4714L34.3486 10.3308V14.7762L32.2467 14.5166V9.4714ZM32.2467 14.6505L34.3486 14.9102V19.1434L32.2467 19.4875V14.6505ZM32.2467 19.6215L34.3486 19.2773V23.5723L32.2467 24.2607V19.6215ZM32.2467 24.4008L34.3486 23.7125V28.0239L32.2467 28.8833V24.4008Z" fill="currentColor"/>
<path d="M40.7031 27.146L46.1688 29.3821V8.97266L40.7031 11.2088V27.146ZM43.7577 10.3308L45.8595 9.4714V14.5166L43.7577 14.7762V10.3308ZM43.7577 14.9102L45.8595 14.6505V19.4855L43.7577 19.1413V14.9102ZM43.7577 19.2794L45.8595 19.6236V24.2627L43.7577 23.5744V19.2794ZM43.7577 23.7125L45.8595 24.4008V28.8854L43.7577 28.026V23.7125ZM42.0612 11.0253L43.6407 10.3782V14.7886L42.0612 14.9844V11.0253ZM42.0612 15.1184L43.6407 14.9246V19.1228L42.0612 18.8651V15.1184ZM42.0612 19.0012L43.6407 19.2588V23.5332L42.0612 23.0159V19.0012ZM42.0612 23.156L43.6407 23.6733V27.9765L42.0612 27.3294V23.156ZM41.0123 11.454L41.9421 11.0727V14.9988L41.0123 15.1142V11.454ZM41.0123 15.2482L41.9421 15.1328V18.8445L41.0123 18.692V15.2482ZM41.0123 18.8301L41.9421 18.9826V22.9788L41.0123 22.6738V18.8301ZM41.0123 22.8139L41.9421 23.1189V27.282L41.0123 26.9007V22.8139Z" fill="currentColor"/>
<path d="M30.5174 7.84392C30.7075 6.0035 31.5642 4.29087 32.9765 2.95744C33.9669 2.02178 35.1557 1.34579 36.451 0.962457V1.38083C35.258 1.75179 34.1633 2.3845 33.246 3.25216C31.9172 4.50726 31.1066 6.11273 30.906 7.84392H31.4827H34.0066H34.4265H36.451H36.5701H41.2376H41.3567H43.5547H43.9746H46.4985H47.0752C46.8746 6.11273 46.0639 4.50726 44.7351 3.25216C43.772 2.34328 42.6145 1.68997 41.3546 1.32724V0.912994C42.7169 1.28602 43.9684 1.98056 45.0026 2.95744C46.4128 4.29087 47.2695 6.00144 47.4617 7.84392H48.0864C47.8942 5.84275 46.9728 3.97967 45.4413 2.53495C43.7093 0.900629 41.4194 0 38.9875 0C36.5576 0 34.2656 0.900629 32.5357 2.53495C31.0042 3.98173 30.0849 5.84275 29.8906 7.84392H30.5174ZM36.449 7.72645H34.4411C34.5916 6.78872 35.0345 5.919 35.7323 5.23271C35.9538 5.01425 36.1941 4.82053 36.4469 4.65359V7.72645H36.449ZM36.449 4.17545C36.0854 4.38773 35.7449 4.64123 35.4398 4.94212C34.6626 5.70879 34.1779 6.67949 34.0233 7.72645H31.4973C31.7167 6.18899 32.4605 4.76282 33.6472 3.64167C34.4537 2.87913 35.4106 2.31031 36.449 1.95789V4.17545ZM41.3546 1.9043C42.462 2.25054 43.4795 2.83791 44.3319 3.64373C45.5207 4.76488 46.2624 6.19105 46.4818 7.72851H43.9558C43.8012 6.68155 43.3165 5.71085 42.5393 4.94418C42.1841 4.59382 41.785 4.30117 41.3546 4.07447V1.9043ZM41.3546 4.55054C41.6743 4.74015 41.9731 4.96479 42.2447 5.23271C42.9425 5.92107 43.3854 6.78872 43.5359 7.72645H41.3546V4.55054ZM36.568 0.927421C37.3453 0.708962 38.158 0.59561 38.9895 0.59561C39.7584 0.59561 40.5126 0.694535 41.2355 0.88208V1.29427C40.5126 1.09848 39.7584 0.993371 38.9895 0.993371C38.158 0.993371 37.3432 1.1129 36.568 1.34167V0.927421ZM36.568 1.92079C37.339 1.67348 38.1538 1.54364 38.9895 1.54364C39.7626 1.54364 40.5168 1.65493 41.2355 1.86721V4.01676C40.544 3.67259 39.7814 3.4871 38.9895 3.4871C38.1308 3.4871 37.3035 3.7035 36.568 4.10538V1.92079ZM36.568 4.58352C37.2909 4.14042 38.1204 3.89723 38.9895 3.89723C39.7877 3.89723 40.5565 4.10126 41.2355 4.48047V7.72645H36.568V4.58352Z" fill="currentColor"/>
<path d="M48.1633 8.09375H29.8359V8.54716H48.1633V8.09375Z" fill="currentColor"/>
<path d="M36.7302 21.6461H36.5965C36.5735 21.6461 36.5547 21.6276 36.5547 21.6049V16.6916C36.5547 16.6689 36.5735 16.6504 36.5965 16.6504H36.7302C36.7532 16.6504 36.772 16.6689 36.772 16.6916V21.6069C36.7699 21.6276 36.7532 21.6461 36.7302 21.6461Z" fill="currentColor"/>
<path d="M41.488 21.6461H41.3543C41.3313 21.6461 41.3125 21.6276 41.3125 21.6049V16.6916C41.3125 16.6689 41.3313 16.6504 41.3543 16.6504H41.488C41.511 16.6504 41.5298 16.6689 41.5298 16.6916V21.6069C41.5277 21.6276 41.511 21.6461 41.488 21.6461Z" fill="currentColor"/>
<path d="M20.8431 58.7843C20.8431 59.4191 20.3145 59.922 19.6794 59.922C19.0442 59.922 18.5156 59.4191 18.5156 58.7843C18.5156 58.1537 19.0442 57.6426 19.6794 57.6426C20.3145 57.6426 20.8431 58.1537 20.8431 58.7843ZM18.7643 58.7823C18.7643 59.279 19.1738 59.6953 19.6794 59.6953C20.1871 59.6953 20.5945 59.279 20.5945 58.7823C20.5945 58.2835 20.1912 57.8713 19.6794 57.8713C19.1654 57.8693 18.7643 58.2815 18.7643 58.7823Z" fill="currentColor"/>
<path d="M21.7877 59.8849H21.5391V57.6797H21.9068C22.099 57.6797 22.2975 57.6859 22.4604 57.7972C22.6255 57.9105 22.7132 58.1042 22.7132 58.3C22.7132 58.4793 22.638 58.6586 22.5001 58.774C22.3497 58.8977 22.1575 58.9204 21.9695 58.9204H21.7877V59.8849ZM21.7877 58.6916H21.9548C22.2306 58.6916 22.4646 58.6092 22.4646 58.2938C22.4646 57.9352 22.17 57.9084 21.8796 57.9084H21.7877V58.6916Z" fill="currentColor"/>
<path d="M23.3828 57.6797H24.5403V57.9084H23.6314V58.5618H24.5152V58.7905H23.6314V59.6561H24.5403V59.8849H23.3828V57.6797Z" fill="currentColor"/>
<path d="M25.3359 57.5879L27.0784 59.3871V57.6806H27.327V59.9847L25.5846 58.1856V59.8858H25.3359V57.5879Z" fill="currentColor"/>
<path d="M29.2109 57.6797H29.4972L30.0676 58.6628L30.6358 57.6797H30.9242L30.1908 58.9369V59.8849H29.9422V58.9369L29.2109 57.6797Z" fill="currentColor"/>
<path d="M33.7415 58.7843C33.7415 59.4191 33.213 59.922 32.5778 59.922C31.9406 59.922 31.4141 59.4191 31.4141 58.7843C31.4141 58.1537 31.9427 57.6426 32.5778 57.6426C33.215 57.6426 33.7415 58.1537 33.7415 58.7843ZM31.6627 58.7823C31.6627 59.279 32.0722 59.6953 32.5778 59.6953C33.0834 59.6953 33.4929 59.279 33.4929 58.7823C33.4929 58.2835 33.0897 57.8713 32.5778 57.8713C32.0638 57.8693 31.6627 58.2815 31.6627 58.7823Z" fill="currentColor"/>
<path d="M34.6783 58.9925C34.6783 59.1553 34.672 59.3429 34.7765 59.483C34.8747 59.617 35.0648 59.6932 35.2278 59.6932C35.3887 59.6932 35.5621 59.6211 35.6666 59.4974C35.7857 59.3573 35.7773 59.1636 35.7773 58.9925V57.6797H36.0259V59.0605C36.0259 59.2996 36.0071 59.4912 35.8295 59.6706C35.6749 59.8334 35.4534 59.922 35.2278 59.922C35.0168 59.922 34.8016 59.8437 34.6491 59.6973C34.4527 59.5139 34.4297 59.3119 34.4297 59.0605V57.6797H34.6783V58.9925Z" fill="currentColor"/>
<path d="M37.0689 59.8849H36.8203V57.6797H37.1421C37.5662 57.6797 37.9611 57.791 37.9611 58.2877C37.9611 58.6277 37.7459 58.8668 37.4011 58.8956L38.1115 59.8828H37.8065L37.1316 58.9162H37.0689V59.8849ZM37.0689 58.6998H37.1462C37.4262 58.6998 37.7124 58.6483 37.7124 58.3062C37.7124 57.9435 37.4429 57.9084 37.1442 57.9084H37.071V58.6998H37.0689Z" fill="currentColor"/>
<path d="M42.265 58.7843C42.265 59.4191 41.7364 59.922 41.1012 59.922C40.464 59.922 39.9375 59.4191 39.9375 58.7843C39.9375 58.1537 40.4661 57.6426 41.1012 57.6426C41.7364 57.6426 42.265 58.1537 42.265 58.7843ZM40.184 58.7823C40.184 59.279 40.5935 59.6953 41.0992 59.6953C41.6048 59.6953 42.0143 59.279 42.0143 58.7823C42.0143 58.2835 41.611 57.8713 41.0992 57.8713C40.5873 57.8693 40.184 58.2815 40.184 58.7823Z" fill="currentColor"/>
<path d="M43.6222 59.3306L44.3451 57.5664L45.068 59.3306L45.6551 57.6798H45.9247L45.068 59.9983L44.3451 58.2238L43.6222 59.9983L42.7656 57.6798H43.0351L43.6222 59.3306Z" fill="currentColor"/>
<path d="M46.5547 57.5879L48.2972 59.3871V57.6806H48.5458V59.9847L46.8033 58.1856V59.8858H46.5547V57.5879Z" fill="currentColor"/>
<path d="M51.2252 59.8849H50.9765V57.9084H50.4375V57.6797H51.7705V57.9084H51.2252V59.8849Z" fill="currentColor"/>
<path d="M52.5724 59.258L52.3029 59.8845H52.0312L53.0634 57.5742L54.0683 59.8845H53.7925L53.5293 59.258H52.5724ZM53.055 58.1472L52.6727 59.0313H53.429L53.055 58.1472Z" fill="currentColor"/>
<path d="M55.5865 58.1103C55.4988 57.9578 55.3901 57.8712 55.2021 57.8712C55.0036 57.8712 54.8323 58.0114 54.8323 58.2134C54.8323 58.403 55.0308 58.4916 55.1812 58.5596L55.3295 58.6235C55.62 58.7492 55.8665 58.8935 55.8665 59.2438C55.8665 59.6292 55.5531 59.926 55.1645 59.926C54.8051 59.926 54.5398 59.6972 54.4688 59.3551L54.7111 59.2871C54.7445 59.5117 54.9179 59.6972 55.1582 59.6972C55.3985 59.6972 55.6179 59.5159 55.6179 59.2665C55.6179 59.0089 55.4131 58.9223 55.2063 58.8275L55.0705 58.7698C54.8093 58.6523 54.5858 58.5204 54.5858 58.2051C54.5858 57.863 54.8782 57.6445 55.2104 57.6445C55.4591 57.6445 55.6701 57.7702 55.7871 57.9866L55.5865 58.1103Z" fill="currentColor"/>
<path d="M57.1783 59.8849H56.9297V57.9084H56.3906V57.6797H57.7236V57.9084H57.1783V59.8849Z" fill="currentColor"/>
<path d="M58.3281 57.6797H59.4856V57.9084H58.5768V58.5618H59.4605V58.7905H58.5768V59.6561H59.4856V59.8849H58.3281V57.6797Z" fill="currentColor"/>
<path d="M13.8834 40.8672C13.2838 39.7749 12.423 38.9134 11.3282 38.3095C11.324 38.3075 11.3178 38.3054 11.3115 38.3013C11.2593 38.2704 11.2091 38.2354 11.1548 38.2044C10.0746 37.5903 8.82522 37.2832 7.41076 37.2832C6.43506 37.2832 5.51994 37.4687 4.66333 37.8397C4.29352 37.9798 3.93416 38.1509 3.58943 38.3569C2.48209 39.0144 1.59832 39.9315 0.958991 41.0836C0.323842 42.2356 0 43.5278 0 44.9231C0 46.3328 0.30086 47.5961 0.892133 48.6802C1.4855 49.7663 2.33166 50.6216 3.40766 51.2172C3.58525 51.3161 3.76702 51.4047 3.95088 51.4872C4.93076 51.9756 6.03182 52.2229 7.25616 52.2229C8.47004 52.2229 9.58364 51.9591 10.599 51.4357C10.7954 51.3532 10.9814 51.2667 11.1464 51.1719C12.2726 50.5206 13.171 49.6138 13.8145 48.4741C14.4601 47.3344 14.786 46.0504 14.786 44.6552C14.7881 43.2331 14.4831 41.9595 13.8834 40.8672ZM4.81585 50.9101C3.98639 50.2135 3.34289 49.2861 2.88533 48.1258C2.42777 46.9675 2.19377 45.7248 2.18123 44.4017C2.15616 42.9405 2.36718 41.6936 2.81847 40.6673C3.26976 39.6409 3.87357 38.8639 4.63199 38.3405C5.39041 37.817 6.22613 37.5532 7.14124 37.5532C8.20888 37.5532 9.1616 37.9118 9.99732 38.629C10.6889 39.2225 11.2509 39.9768 11.6876 40.8919C11.7899 41.131 11.8902 41.3762 11.9926 41.6297C12.0407 41.7493 12.0845 41.8729 12.1284 41.9945C12.469 43.0373 12.6424 44.1502 12.6424 45.3332C12.6424 46.6502 12.4376 47.7796 12.0448 48.7358C12.0302 48.7688 12.0198 48.8038 12.0051 48.8368C11.9007 49.0594 11.792 49.284 11.6792 49.5046C11.2634 50.2383 10.7474 50.8091 10.1331 51.211C9.37471 51.7077 8.5369 51.9571 7.62387 51.9571C6.58131 51.955 5.6453 51.6067 4.81585 50.9101Z" fill="currentColor"/>
<path d="M45.5487 37.5638C45.4505 37.5638 45.3502 37.5638 45.2499 37.5659L40.7725 37.5617C40.6534 37.5617 40.5323 37.5597 40.4132 37.5597C40.3421 37.5597 40.3087 37.5968 40.3087 37.673C40.3087 37.7472 40.3421 37.7864 40.4132 37.7864C40.7099 37.7864 40.9836 37.8235 41.2405 37.8977C41.7232 38.0667 42.1431 38.4108 42.421 38.8416C42.8221 39.4619 43.0248 40.3996 43.0248 41.3951V49.2555L32.994 37.572C32.9773 37.5514 32.9502 37.5391 32.923 37.5391C32.923 37.5391 30.3991 37.5391 30.0001 37.5391C29.9959 37.5391 29.9938 37.5391 29.9896 37.5391C29.9562 37.5391 29.9249 37.5391 29.8935 37.5391C29.8267 37.5391 29.7953 37.572 29.7953 37.6339C29.7953 37.6978 29.8288 37.7287 29.8935 37.7287C29.9437 37.7307 29.9917 37.7307 30.0419 37.7307C30.606 37.7472 31.0155 37.8193 31.2557 37.9512C31.4898 38.077 31.847 38.3717 31.9452 38.823C32.0476 39.2991 32.0601 40.2616 32.0601 41.3642L32.0163 48.8289C32.0163 49.6924 31.8199 50.3663 31.4521 50.9187C31.1555 51.3638 30.677 51.6688 30.1484 51.7678C30.1484 51.7678 30.1484 51.7678 30.1484 51.7657C30.0063 51.7904 29.8601 51.8028 29.7055 51.8028C29.6407 51.8028 29.6094 51.8337 29.6094 51.8935C29.6094 51.9532 29.6407 51.9842 29.7055 51.9842C29.8622 51.9842 30.021 51.9821 30.1818 51.98L34.561 51.9862C34.5631 51.9862 34.5673 51.9862 34.5694 51.9862H34.5903V51.9842C34.6571 51.978 34.6927 51.945 34.6927 51.8811C34.6927 51.811 34.653 51.776 34.5715 51.776C34.5631 51.776 34.5568 51.776 34.5485 51.776V51.7719C34.5088 51.7719 34.4712 51.7698 34.4315 51.7657V51.7636L34.4231 51.7657C33.7378 51.7142 33.0755 51.3123 32.7057 50.7435C32.3046 50.1252 32.2544 49.4451 32.2544 48.4476L32.3213 39.7628L42.8974 51.8811C42.9433 51.9532 43.0144 51.9883 43.0917 51.9739C43.1773 51.9594 43.2296 51.8955 43.2296 51.8069V40.7211C43.2296 39.8576 43.4155 39.1404 43.7832 38.5881C44.1488 38.0399 44.7819 37.7658 45.4505 37.7658C45.4547 37.7658 45.4568 37.7658 45.4609 37.7658C45.4902 37.7658 45.5194 37.7658 45.5466 37.7658C45.6364 37.7658 45.6824 37.7328 45.6824 37.6627C45.6866 37.5968 45.6406 37.5638 45.5487 37.5638Z" fill="currentColor"/>
<path d="M62.5956 37.5638C62.4974 37.5638 62.3971 37.5638 62.2968 37.5659L57.8194 37.5617C57.7003 37.5617 57.5791 37.5597 57.46 37.5597C57.389 37.5597 57.3556 37.5968 57.3556 37.673C57.3556 37.7472 57.389 37.7864 57.46 37.7864C57.7567 37.7864 58.0304 37.8235 58.2874 37.8977C58.77 38.0667 59.19 38.4108 59.4679 38.8416C59.869 39.4619 60.0717 40.3996 60.0717 41.3951V49.2555L50.0409 37.572C50.0242 37.5514 49.997 37.5391 49.9699 37.5391C49.9699 37.5391 47.446 37.5391 47.0469 37.5391C47.0428 37.5391 47.0407 37.5391 47.0365 37.5391C47.0031 37.5391 46.9717 37.5391 46.9404 37.5391C46.8735 37.5391 46.8422 37.572 46.8422 37.6339C46.8422 37.6978 46.8756 37.7287 46.9404 37.7287C46.9905 37.7307 47.0386 37.7307 47.0887 37.7307C47.6529 37.7472 48.0624 37.8193 48.3026 37.9512C48.5366 38.077 48.8939 38.3717 48.9921 38.823C49.0945 39.2991 49.107 40.2616 49.107 41.3642L49.0631 48.8289C49.0631 49.6924 48.8667 50.3663 48.499 50.9187C48.2023 51.3638 47.7239 51.6688 47.1953 51.7678C47.1953 51.7678 47.1953 51.7678 47.1953 51.7657C47.0532 51.7904 46.907 51.8028 46.7524 51.8028C46.6876 51.8028 46.6562 51.8337 46.6562 51.8935C46.6562 51.9532 46.6876 51.9842 46.7524 51.9842C46.9091 51.9842 47.0678 51.9821 47.2287 51.98L51.6079 51.9862C51.61 51.9862 51.6142 51.9862 51.6163 51.9862H51.6372V51.9842C51.704 51.978 51.7395 51.945 51.7395 51.8811C51.7395 51.811 51.6998 51.776 51.6184 51.776C51.61 51.776 51.6037 51.776 51.5954 51.776V51.7719C51.5557 51.7719 51.5181 51.7698 51.4784 51.7657V51.7636L51.47 51.7657C50.7847 51.7142 50.1224 51.3123 49.7526 50.7435C49.3515 50.1252 49.3013 49.4451 49.3013 48.4476L49.3682 39.7628L59.9442 51.8811C59.9902 51.9532 60.0612 51.9883 60.1385 51.9739C60.2242 51.9594 60.2764 51.8955 60.2764 51.8069V40.7211C60.2764 39.8576 60.4624 39.1404 60.8301 38.5881C61.1957 38.0399 61.8288 37.7658 62.4974 37.7658C62.5015 37.7658 62.5036 37.7658 62.5078 37.7658C62.5371 37.7658 62.5663 37.7658 62.5935 37.7658C62.6833 37.7658 62.7293 37.7328 62.7293 37.6627C62.7335 37.5968 62.6875 37.5638 62.5956 37.5638Z" fill="currentColor"/>
<path d="M28.1229 39.5747C27.6278 38.94 26.9111 38.4515 25.971 38.1053C25.0308 37.7611 23.913 37.588 22.6134 37.588H20.5241V37.5859C19.2225 37.5715 17.5009 37.5571 16.7634 37.5509C16.6798 37.5509 16.5921 37.5488 16.5064 37.5488C16.4793 37.5488 16.4584 37.5488 16.4416 37.5488C16.4333 37.5488 16.427 37.5488 16.4187 37.5488C16.3539 37.5488 16.3226 37.5736 16.3226 37.621C16.3226 37.6704 16.3539 37.6931 16.4187 37.6931C16.6443 37.6993 16.8428 37.7137 17.0162 37.7364C17.3693 37.8106 17.6973 37.9198 17.8436 37.9899C18.065 38.097 18.2217 38.3464 18.3137 38.7318C18.4098 39.1399 18.4599 39.8159 18.4599 40.7453V48.6964C18.4599 49.6259 18.4119 50.3843 18.3137 50.7903C18.2238 51.1737 18.065 51.4787 17.8436 51.5859C17.6075 51.7013 16.8219 51.7693 16.2641 51.7817C16.2515 51.7817 16.239 51.7817 16.2285 51.7837C16.1533 51.7899 16.1115 51.8249 16.1178 51.8868C16.122 51.9445 16.1617 51.9548 16.2118 51.9651C16.2244 51.9671 16.2453 51.9692 16.2745 51.9692C16.8637 51.9713 21.2805 51.9713 22.626 51.9713C22.7513 51.9713 22.8788 51.9713 23.0104 51.9713C23.1107 51.9713 23.1608 51.9403 23.1608 51.8785C23.1608 51.8249 23.1212 51.794 23.0459 51.7878C23.0376 51.7878 23.0146 51.7858 23.0042 51.7837H23.0021C22.1914 51.7837 21.6524 51.7136 21.2993 51.5776C20.9566 51.4457 20.7247 51.1036 20.5889 50.6791C20.4489 50.2421 20.3654 49.4095 20.3654 48.3894V46.0275H22.9268C24.7926 46.0275 26.2488 45.6545 27.2977 44.9105C28.3465 44.1665 28.8709 43.1381 28.8709 41.8273C28.8667 40.9617 28.6181 40.2095 28.1229 39.5747ZM25.7014 44.7271C24.8783 45.4443 23.727 45.8029 22.2478 45.8029H20.3612V40.2466C20.3612 39.515 20.3779 38.9956 20.4092 38.705C20.4364 38.4515 20.474 38.0476 20.5158 37.8518L20.5095 37.8415H20.5179V37.8394H20.5241V37.8147H22.2854C23.2507 37.8147 24.0822 37.9837 24.7842 38.3217C25.4862 38.6597 26.019 39.1296 26.3867 39.7293C26.7544 40.329 26.9362 41.0236 26.9362 41.8088C26.9362 43.0371 26.5246 44.0099 25.7014 44.7271Z" fill="currentColor"/>
<path d="M77.9965 45.6071C77.9902 45.5494 77.9526 45.5205 77.8858 45.5205C77.8586 45.5205 72.7106 45.5164 72.6542 45.5164C72.5727 45.5164 72.5351 45.5453 72.5434 45.603C72.5497 45.6504 72.5748 45.6792 72.6207 45.6875C72.6207 45.6875 72.6604 45.6957 72.7001 45.6957C72.7043 45.6957 72.7064 45.6957 72.7106 45.6957H72.8902C73.352 45.6978 73.8639 45.741 74.1271 45.8276C74.1334 45.8297 74.1396 45.8317 74.148 45.8358C74.1585 45.84 74.1668 45.842 74.1752 45.8462C74.265 45.8894 74.3465 46.0172 74.3883 46.0996C74.3987 46.1182 74.4071 46.1347 74.4154 46.1553C74.4614 46.2542 74.5011 46.3655 74.5304 46.4912C74.6327 46.9199 74.685 47.7195 74.685 48.6861V51.2953C74.685 51.3179 74.6703 51.3406 74.6474 51.3489C74.1564 51.5488 73.6215 51.7054 73.0428 51.8208C72.4515 51.9383 71.8916 51.996 71.363 51.996C70.0634 51.996 68.9686 51.6312 68.0828 50.8996C67.1948 50.1679 66.5346 49.2364 66.1042 48.107C65.6738 46.9755 65.4565 45.8111 65.4565 44.6096C65.4565 43.2844 65.6487 42.1056 66.0352 41.071C66.4218 40.0364 66.9733 39.2326 67.6941 38.6597C68.415 38.0867 69.2632 37.8003 70.241 37.8003C71.3212 37.8003 72.2342 38.097 72.9801 38.6885C72.9822 38.6885 72.9822 38.6906 72.9843 38.6906C73.5358 39.1832 74.3005 40.2445 74.6035 40.8154C74.8291 41.24 75.0631 41.7284 75.2992 42.2642C75.3932 42.4745 75.4852 42.6909 75.5792 42.9176H75.5771C75.598 42.9691 75.6231 43.0227 75.646 43.0783C75.6481 43.0845 75.6523 43.0927 75.6544 43.0989V43.101C75.6753 43.1484 75.6941 43.1958 75.7129 43.2411C75.7463 43.3112 75.7714 43.3339 75.8362 43.3298C75.903 43.3236 75.9406 43.2741 75.9406 43.1937L75.9323 43.1525L75.8466 42.8104L75.6816 42.153L74.9691 39.278L74.8437 38.7957C74.8312 38.7483 74.802 38.7091 74.7602 38.6865C74.7602 38.6865 74.7581 38.6844 74.756 38.6844C74.3966 38.4969 72.978 38.0043 72.978 38.0064C72.5455 37.8642 72.0441 37.7405 71.4653 37.6395C71.0036 37.5818 70.5962 37.5488 70.2598 37.5488C69.773 37.5488 69.3071 37.5942 68.86 37.6849C67.9783 37.8147 67.1676 38.1259 66.4468 38.6143C65.469 39.278 64.7023 40.193 64.1695 41.3348C63.6388 42.4724 63.3672 43.7502 63.3672 45.1351C63.3672 46.5654 63.6869 47.8514 64.3199 48.9582C64.953 50.0649 65.8075 50.9305 66.8647 51.5323C67.6356 51.9713 68.4609 52.2495 69.328 52.369V52.3711C69.328 52.3711 69.913 52.4659 70.7403 52.4679C70.7487 52.4679 70.755 52.4679 70.7633 52.4679C70.7717 52.4679 70.778 52.4679 70.7863 52.4679C70.9075 52.4679 71.0308 52.4659 71.1603 52.4597C71.7014 52.4411 72.182 52.3876 72.5977 52.2928C73.1117 52.1753 73.6528 52.0207 74.219 51.827C74.6745 51.6642 74.9921 51.5817 75.1759 51.5797C75.1822 51.5797 75.1864 51.5797 75.1927 51.5817C75.3097 51.6126 75.4225 51.6951 75.5374 51.8332C75.6962 52.0269 75.8027 52.2186 75.8633 52.4185L75.9135 52.5916C75.9197 52.6163 75.9448 52.6328 75.9699 52.6328H76.2248C76.2478 52.6328 76.2666 52.6143 76.2666 52.5916V52.5586L76.2707 52.3834C76.2707 52.3793 76.2728 52.3773 76.2728 52.3731L76.2749 52.2825C76.2749 52.2783 76.2749 52.2742 76.2728 52.268V50.6152C76.2707 50.6152 76.2707 50.6152 76.2686 50.6152V48.6799C76.2686 47.7154 76.3083 46.9137 76.3836 46.485C76.3836 46.485 76.4191 46.3037 76.488 46.1388C76.5173 46.077 76.5486 46.0193 76.5779 45.9719C76.582 45.9677 76.5841 45.9616 76.5862 45.9574C76.6217 45.9018 76.6573 45.8585 76.6865 45.8379C76.7993 45.7596 77.0396 45.7122 77.2966 45.6936C77.3238 45.6936 77.5285 45.6875 77.5682 45.6875C77.5682 45.6875 77.8231 45.6875 77.8795 45.6875C77.9673 45.6936 78.0049 45.6648 77.9965 45.6071Z" fill="currentColor"/>
</g>
<defs>
<clipPath id="clip0_4483_7941">
<rect width="78" height="60" fill="currentColor"/>
</clipPath>
</defs>
</svg>
